/* XPM */
static char *_2376d73bdb0466bc85808b4d3a3f8a3CQPumTfuNINcCRH8[] = {
/* columns rows colors chars-per-pixel */
"50 50 245 2 ",
"   c #FEFEFE",
".  c #FDFDFD",
"X  c #FEFDFD",
"o  c #FEFFFF",
"O  c #FDF1F1",
"+  c #FEFBFB",
"@  c #FDFCFC",
"#  c #F6B0B3",
"$  c #F5AAAE",
"%  c white",
"&  c #FDFAFA",
"*  c #FCECED",
"=  c #E8202B",
"-  c #F49597",
";  c #FDF9F9",
":  c #FEF9F9",
">  c #F06F75",
",  c #E70A14",
"<  c #F8BBBD",
"1  c #FDF3F4",
"2  c #EA313C",
"3  c #E92732",
"4  c #FAD5D6",
"5  c #FDFBFB",
"6  c #F4A1A4",
"7  c #E70715",
"8  c #EB3F48",
"9  c #FCE9EA",
"0  c #FEFCFD",
"q  c #FDFEFE",
"w  c #FDF3F3",
"e  c #F6B5B7",
"r  c #ED5259",
"t  c #E81523",
"y  c #EC3E47",
"u  c #FEFDFE",
"i  c #F28F94",
"p  c #E81A27",
"a  c #F1747B",
"s  c #F9CFD1",
"d  c #FEFEFF",
"f  c #F8C6C9",
"g  c #E9222F",
"h  c #E81825",
"j  c #E60513",
"k  c #F1777F",
"l  c #F28285",
"z  c #F8C4C6",
"x  c #F7B3B7",
"c  c #EA2831",
"v  c #EB3C46",
"b  c #E70A17",
"n  c #F59EA2",
"m  c #F8C1C3",
"M  c #EF6062",
"N  c #FEFCFC",
"B  c #F8C8C9",
"V  c #EB414B",
"C  c #E81D29",
"Z  c #E81320",
"A  c #FAD4D6",
"S  c #FCE8E9",
"D  c #EB4248",
"F  c #F9CCCD",
"G  c #FBDEDF",
"H  c #E9222D",
"J  c #E91F2B",
"K  c #E81925",
"L  c #EE5960",
"P  c #F07174",
"I  c #ED5057",
"U  c #FADCDD",
"Y  c #E9222E",
"T  c #E91E2A",
"R  c #E70816",
"E  c #F27E86",
"W  c #F7BCBF",
"Q  c #F8C1C5",
"!  c #F4989D",
"~  c #E81522",
"^  c #E92632",
"/  c #E8121F",
"(  c #F5A4A8",
")  c #FEFEFD",
"_  c #EF5E66",
"`  c #EB3A41",
"'  c #EE5B63",
"]  c #E70C19",
"[  c #E81E2A",
"{  c #E9212C",
"}  c #FADADC",
"|  c #FDF9FA",
" . c #F6AFB3",
".. c #E9232D",
"X. c #F6AFB1",
"o. c #FDFBFC",
"O. c #FAD1D2",
"+. c #EB3841",
"@. c #E92430",
"#. c #E7101D",
"$. c #EF5E64",
"%. c #FEF7F7",
"&. c #EA2B37",
"*. c #EC3E49",
"=. c #FDFCFD",
"-. c #F9CBCD",
";. c #E7141E",
":. c #E81926",
">. c #F7B6BA",
",. c #F3898E",
"<. c #E60410",
"1. c #FADBDB",
"2. c #F5A3A5",
"3. c #EB323E",
"4. c #F8C5C7",
"5. c #E8121E",
"6. c #F17378",
"7. c #ED515B",
"8. c #E81824",
"9. c #E9202B",
"0. c #F6ACAE",
"q. c #E6010D",
"w. c #E70D1A",
"e. c #F4979B",
"r. c #F1767C",
"t. c #E81B28",
"y. c #E7111E",
"u. c #F6ADB1",
"i. c #EE5E65",
"p. c #E70E1B",
"a. c #E81C28",
"s. c #EB313E",
"d. c #E70F1B",
"f. c #EC424D",
"g. c #F06970",
"h. c #FDFAFB",
"j. c #F9CCCE",
"k. c #E60008",
"l. c #F59DA0",
"z. c #FDF0F0",
"x. c #EA323D",
"c. c #ED525B",
"v. c #FDEFEF",
"b. c #EA2731",
"n. c #F39096",
"m. c #E70D1B",
"M. c #E91C29",
"N. c #F38A8E",
"B. c #FDF8F8",
"V. c #EF636C",
"C. c #EC444F",
"Z. c #EE5A61",
"A. c #E70914",
"S. c #F17278",
"D. c #F9D1D1",
"F. c #E60511",
"G. c #F9D1D4",
"H. c #FBE1E3",
"J. c #ED535C",
"K. c #E81623",
"L. c #E70E1A",
"P. c #F7B8BB",
"I. c #EE565E",
"U. c #EE5B62",
"Y. c #FBE0E1",
"T. c #EC464F",
"R. c #E91D28",
"E. c #EA2C38",
"W. c #FCEBEB",
"Q. c #F38F92",
"!. c #E9232F",
"~. c #FBE3E3",
"^. c #EB3640",
"/. c #E70A16",
"(. c #F17377",
"). c #E6000E",
"_. c #F7B7BB",
"`. c #FDF2F2",
"'. c #E70F1C",
"]. c #E81B26",
"[. c #F9CED0",
"{. c #FCE7E8",
"}. c #E81A28",
"|. c #F3868C",
" X c #EA2934",
".X c #EE535C",
"XX c #EA2531",
"oX c #EE535D",
"OX c #F5A0A4",
"+X c #F7B8BD",
"@X c #FEF8F8",
"#X c #ED4A53",
"$X c #EE5159",
"%X c #FEFAF9",
"&X c #FEFBFC",
"*X c #FCEFF0",
"=X c #EE555E",
"-X c #F1767D",
";X c #E91A25",
":X c #FDF5F6",
">X c #F28086",
",X c #E70917",
"<X c #FCECEC",
"1X c #F9CDD0",
"2X c #F8C7C8",
"3X c #FDF7F8",
"4X c #EB3944",
"5X c #EF5B63",
"6X c #EC434B",
"7X c #F27F86",
"8X c #F17275",
"9X c #F5A5AA",
"0X c #F17980",
"qX c #EF6166",
"wX c #FDF1F2",
"eX c #EC3E48",
"rX c #E7131F",
"tX c #FBDBDD",
"yX c #F9C5C8",
"uX c #E91D29",
"iX c #FACDCF",
"pX c #E9232E",
"aX c #E60814",
"sX c #F38F93",
"dX c #FFFEFE",
"fX c #EE5B5E",
"gX c #F9C5C7",
"hX c #F7B1B4",
"jX c #E7131E",
"kX c #ED4851",
"lX c #FCEDED",
"zX c #F8BEC0",
"xX c #E60510",
"cX c #F8C5C8",
"vX c #F4979A",
"bX c #E50007",
"nX c #EE535A",
"mX c #FBE1E2",
"MX c #FCEAEB",
"NX c #F6ACB1",
"BX c #E50003",
"VX c #F7BABD",
"CX c #FEFAFA",
"ZX c #EF636B",
"AX c #F06D72",
/* pixels */
"  .                                                                                             .   ",
"  .                                                                                             .   ",
"  .                 X   . .   X                                                                 .   ",
"  .                   . o   .   X                                                               .   ",
"  .               X .   O + X .   X                                                             .   ",
"  .               X @   # $ % & X .                                                             .   ",
"  .                 @ o * = - % ;   .                                                           .   ",
"  .                 . @ : > , < % &   .                                                         .   ",
"  .                   @ o 1 2 3 4 o 5   .                       X .                             .   ",
"  .                 X . @ + 6 7 8 9 0 @   .                 X X . q . X                         .   ",
"  .                   . X w e r t y X X @   .             X   q                                 .   ",
"  .                     . u   i p p a % @ .   X         u X . X ; s   . X                       .   ",
"  .                   X X 5 d f g h j k % 5 . X         X   5 % l z o @ X                       .   ",
"  .                       . 5 o x c v b n % 5   .     .   5 o m M N 5 .                         .   ",
"  .                     X   . @ o B V C Z A % 5   X     @ X S D F o 5                           .   ",
"  .                       X   @ u G H J K L w N .   X . @ o P I % 5 X X                         .   ",
"  .                         X   @ o U Y T R E % ; X X 5 X W b Q   5                             .   ",
"  .                           X X 5 % ! ~ ^ / ( % 5 ) 5 % _ ` % @ . X                           .   ",
"  .                           X   . 5   ' ] [ { } X | o  ...X.  &                               .   ",
"  .                             X   o.  O.+.@.#.$.% ; %.&.*.o =.. X                             .   ",
"  .                               .   5 % -.;.T :.>.% ,.<.1.  5                                 .   ",
"  .                                 . X & X 2.:.~ 3.4.5.6.% 5 X .                               .   ",
"  .                                 X   .   o 7.8.Y [ 9.S X @                                   .   ",
"  .                                   X   & X 0.q.^ w.e.% &   X                                 .   ",
"  .                                     X . N O r.t.y.u.% &   X                                 .   ",
"  .                                       . @ % i.p.a.s.S X @                                   .   ",
"  .                                   .   5 % n d.f.J ] g.X h.X .                               .   ",
"  .                                 X   5 % j.k.l.z.x.#.c.%   .   X                             .   ",
"  .                                   @ X v.b.L % % n.m.M.N.B.N .                               .   ",
"  .                               X . 5 % V.C.%.+ 5 % Z.b A.S.% & X .                           .   ",
"  .                             X   5 X D.F.G.% 5 @ X H.J.K.L.P.% 5   X                         .   ",
"  .                               . & % I.U.) 5 X   5 o Y.T.R.E.W.0 @                           .   ",
"  .                           . X & % Q.!.S X @   .   h.o ~.^./.(.% 5   X                       .   ",
"  .                         .   h.% 4.)._.% 5   X   . . h.`.' '.].[.  5                         .   ",
"  .                       .   5   {.}.|.% &   .         5 o 4  Xw..X% @ . X                     .   ",
"  .                     X   @   X XXoX% h..           .   & % OXZ / +X  5 X                     .   ",
"  .                       =.N @X#X$X%X&X@   X           . @ X *X Xw.=X% @ X X                   .   ",
"  .                   X   5 % -X;X:X  @   .             X X 5   >X,X^.<XN @   X                 .   ",
"  .                 X   5 X 1X).2X% &   .                   =.  3X4Xb 5X% 5 .                   .   ",
"  .                   . 5 % 6X7X% h.X .                   X X 5 % 8X] p 9X% @                   .   ",
"  .               X X @ % 0XqX% 5 .                           @ N wXeXrX8.tX  @ X               .   ",
"  .                 5 % yXuX1 N @   X                       X   5 o iXpXaXsXdX& u               .   ",
"  .               . N %.fXgXo 5   .                           .   & % hXjXkX  . . .             .   ",
"  .               . o lXzX% o.  .                               .   ; % >XxXcX% 5               .   ",
"  .                 . o o @   .                                     & X vXbXnX; . .             .   ",
"  .               X   . @ X X X                                   X @ X mXx.J MXo @             .   ",
"  .                   X X                                             & % NXBXVX% 5             .   ",
"  .                                                                 X . N CXZXAX  @ .           .   ",
"  . . . . . . . . . . . . . . . . . . . . . . . . . . . . . . . . . . q .   % B.X q . . . . . . .   ",
"                                                                          X &Xo                     "
};
